<?xml version="1.0" standalone="no"?>
<!DOCTYPE svg PUBLIC "-//W3C//DTD SVG 20010904//EN"
 "http://www.w3.org/TR/2001/REC-SVG-20010904/DTD/svg10.dtd">
<svg version="1.0" xmlns="http://www.w3.org/2000/svg"
 width="900.000000pt" height="900.000000pt" viewBox="0 0 900.000000 900.000000"
 preserveAspectRatio="xMidYMid meet">
<metadata>
Created by potrace 1.14, written by Peter Selinger 2001-2017
</metadata>
<g transform="translate(0.000000,900.000000) scale(0.100000,-0.100000)"
fill="#000000" stroke="none">
<path d="M4238 8995 c-1 -1 -49 -6 -105 -9 -55 -4 -112 -9 -125 -11 -12 -2
-45 -6 -73 -10 -573 -69 -1167 -266 -1660 -550 -55 -31 -114 -65 -132 -75 -35
-21 -175 -112 -183 -120 -3 -3 -18 -14 -35 -26 -114 -79 -141 -98 -145 -103
-3 -4 -23 -20 -46 -36 -38 -28 -68 -53 -193 -159 -101 -86 -291 -273 -381
-376 -30 -34 -66 -75 -80 -90 -14 -15 -38 -45 -55 -65 -16 -21 -35 -43 -40
-49 -16 -16 -96 -123 -144 -191 -210 -296 -394 -634 -516 -945 -31 -80 -60
-154 -65 -165 -26 -62 -112 -350 -126 -425 -3 -14 -9 -38 -14 -55 -14 -47 -51
-241 -74 -386 -2 -15 -7 -53 -11 -85 -4 -33 -9 -70 -11 -84 -25 -164 -25 -822
1 -955 2 -11 6 -42 9 -70 3 -27 8 -59 10 -71 2 -12 7 -45 11 -75 5 -44 44
-246 61 -322 2 -9 6 -26 8 -37 26 -116 141 -486 158 -507 6 -7 8 -13 5 -13 -5
0 61 -166 93 -235 102 -222 213 -431 313 -589 78 -125 231 -340 293 -413 11
-12 29 -35 41 -50 100 -127 310 -346 458 -478 43 -38 83 -75 89 -80 28 -26
216 -175 261 -206 28 -18 52 -37 55 -40 10 -13 267 -177 363 -232 124 -72 343
-181 472 -236 90 -39 245 -99 270 -105 6 -2 17 -6 25 -9 31 -13 169 -57 226
-72 32 -9 66 -18 74 -21 122 -36 458 -102 605 -119 28 -3 66 -8 85 -10 214
-28 702 -27 945 0 17 2 55 6 85 9 30 4 62 8 70 11 8 2 40 7 70 10 30 3 62 8
70 10 8 2 31 7 50 10 19 3 78 15 130 27 52 11 102 22 110 23 8 2 15 4 15 5 0
1 7 3 15 5 51 10 231 62 320 92 408 138 782 324 1142 567 40 28 75 52 78 55 3
4 41 33 84 65 198 147 458 386 616 565 25 28 60 67 78 87 18 20 45 52 60 72
15 21 32 42 37 48 11 11 37 45 85 109 16 22 33 45 38 50 4 6 18 26 32 45 13
19 27 37 30 40 4 3 24 33 46 68 21 35 46 74 54 87 141 221 284 503 387 760 47
116 143 406 158 475 1 8 8 35 15 60 7 25 14 54 16 65 2 11 13 61 23 110 23
104 38 183 46 240 3 23 7 50 9 61 2 12 7 45 11 75 3 30 8 70 10 89 27 223 27
773 0 950 -4 26 -11 84 -20 160 -37 313 -178 811 -326 1152 -103 239 -269 545
-385 709 -19 27 -34 51 -34 54 0 3 -6 13 -14 22 -8 10 -52 68 -97 128 -170
229 -377 455 -579 635 -40 36 -82 74 -94 85 -59 56 -371 291 -453 340 -18 11
-82 51 -143 89 -112 69 -400 218 -520 270 -169 72 -252 104 -390 149 -131 43
-208 66 -239 72 -13 2 -47 11 -75 19 -58 17 -213 50 -331 70 -69 12 -103 17
-205 31 -8 1 -46 6 -85 10 -38 4 -86 9 -105 11 -40 6 -607 14 -612 9z"/>
</g>
</svg>
